<?xml version="1.0" encoding="UTF-8" standalone="no"?>
<!-- Created with Inkscape (http://www.inkscape.org/) -->
<svg id="svg4691" xmlns:rdf="http://www.w3.org/1999/02/22-rdf-syntax-ns#" xmlns="http://www.w3.org/2000/svg" height="200" viewBox="0 0 200 200" width="200" version="1.1" xmlns:cc="http://creativecommons.org/ns#" xmlns:dc="http://purl.org/dc/elements/1.1/">
 <defs id="defs8">
  <filter id="filter4982" style="color-interpolation-filters:sRGB" height="1.39" width="1.4" y="-.25" x="-.2">
   <feGaussianBlur id="feGaussianBlur4984" stdDeviation="5 5" result="blur"/>
  </filter>
 </defs>
 <metadata id="metadata4696">
  <rdf:RDF>
   <cc:Work rdf:about="">
    <dc:format>image/svg+xml</dc:format>
    <dc:type rdf:resource="http://purl.org/dc/dcmitype/StillImage"/>
    <dc:title/>
   </cc:Work>
  </rdf:RDF>
 </metadata>
 <g id="layer3" transform="translate(0,68)">
  <path id="path4337" fill="#2196f3" stroke-opacity=".97647" fill-opacity=".99216" transform="matrix(8.689 0 0 3.9338 -1200.9 789.09)" stroke="#2196f3" stroke-width="3.319" d="m149.69-174.98 1.8788 3.2542 1.8788 3.2542h-3.7577-3.7577l1.8788-3.2542z"/>
 </g>
 <g id="layer15">
  <g id="layer2-2" transform="translate(38.721 -899.95)" stroke="#fff" fill="#fff">
   <path id="path5244-3" d="m345.71 229.51 77.06 212.65 77.07 212.65-222.7-39.59-222.69-39.59 145.63-173.06z" transform="matrix(-.14329 -.18187 .164 -.1554 26.852 1137.5)" stroke="#fff" stroke-width="62.321" fill="#fff"/>
  </g>
 </g>
 <g id="layer13">
  <g id="layer2-7" transform="translate(38.178 -900.22)" filter="url(#filter4982)" stroke="#c747de">
   <path id="path5244-5" d="m345.71 229.51 77.06 212.65 77.07 212.65-222.7-39.59-222.69-39.59 145.63-173.06z" transform="matrix(-.14329 -.18187 .164 -.1554 26.852 1137.5)" stroke="#c747de" stroke-width="62.321" fill="none"/>
  </g>
 </g>
 <g id="layer12">
  <g id="layer2" transform="translate(37.636 -901.03)">
   <path id="path5244" d="m345.71 229.51 77.06 212.65 77.07 212.65-222.7-39.59-222.69-39.59 145.63-173.06z" transform="matrix(-.14329 -.18187 .164 -.1554 26.852 1137.5)" stroke="#1044e1" stroke-width="62.321" fill="none"/>
  </g>
 </g>
</svg>
