<?xml version="1.0" encoding="UTF-8" standalone="no"?>
<!-- Created with Inkscape (http://www.inkscape.org/) -->
<svg id="svg4691" xmlns:rdf="http://www.w3.org/1999/02/22-rdf-syntax-ns#" xmlns="http://www.w3.org/2000/svg" height="200" viewBox="0 0 200 200" width="200" version="1.1" xmlns:cc="http://creativecommons.org/ns#" xmlns:dc="http://purl.org/dc/elements/1.1/">
 <defs id="defs8">
  <filter id="filter4749" style="color-interpolation-filters:sRGB" height="1.1228" width="1.1173" y="-.061393" x="-.058669">
   <feGaussianBlur id="feGaussianBlur4751" stdDeviation="2.1895376"/>
  </filter>
  <filter id="filter4757" style="color-interpolation-filters:sRGB" height="1.1185" width="1.1215" y="-.059248" x="-.060771">
   <feGaussianBlur id="feGaussianBlur4759" stdDeviation="2.728875"/>
  </filter>
 </defs>
 <metadata id="metadata4696">
  <rdf:RDF>
   <cc:Work rdf:about="">
    <dc:format>image/svg+xml</dc:format>
    <dc:type rdf:resource="http://purl.org/dc/dcmitype/StillImage"/>
    <dc:title/>
   </cc:Work>
  </rdf:RDF>
 </metadata>
 <g id="layer3" transform="translate(0,68)">
  <path id="path4337" fill="#2196f3" stroke-opacity=".97647" fill-opacity=".99216" transform="matrix(8.689 0 0 3.9338 -1200.9 789.09)" stroke="#2196f3" stroke-width="3.319" d="m149.69-174.98 1.8788 3.2542 1.8788 3.2542h-3.7577-3.7577l1.8788-3.2542z"/>
 </g>
 <g id="layer14">
  <g id="layer1-20" transform="translate(36.745 -899.6)" stroke="#fff" fill="#fff">
   <rect id="rect4136-2" height="110.54" width="107.77" stroke="#fff" y="933.69" x="10.794" stroke-width="11.463" fill="#fff"/>
  </g>
 </g>
 <g id="layer13" stroke="#2196f3">
  <g id="layer1-2" transform="matrix(1.05 0 0 1.05 34.053 -949.59)" filter="url(#filter4757)">
   <rect id="rect4136-9" height="110.54" width="107.77" stroke="#2196f3" y="933.69" x="10.794" stroke-width="11.463" fill="none"/>
  </g>
  <g id="layer2-7" transform="matrix(1.05 0 0 1.05 33.996 -949.44)" filter="url(#filter4749)">
   <path id="path5244-6" d="m345.71 229.51 77.06 212.65 77.07 212.65-222.7-39.59-222.69-39.59 145.63-173.06z" transform="matrix(-.1303 -.16539 .14913 -.14132 31.861 1118.3)" stroke="#2196f3" stroke-width="62.321" fill="none"/>
  </g>
 </g>
 <g id="layer12">
  <g id="layer1" transform="translate(37.829 -900.69)">
   <rect id="rect4136" height="110.54" width="107.77" stroke="#ae0ba5" y="933.69" x="10.794" stroke-width="11.463" fill="none"/>
  </g>
  <g id="layer2" transform="translate(37.829 -900.69)">
   <path id="path5244" d="m345.71 229.51 77.06 212.65 77.07 212.65-222.7-39.59-222.69-39.59 145.63-173.06z" transform="matrix(-.1303 -.16539 .14913 -.14132 31.861 1118.3)" stroke="#1044e1" stroke-width="62.321" fill="none"/>
  </g>
 </g>
</svg>
