<?xml version="1.0" encoding="UTF-8" standalone="no"?>
<!-- Created with Inkscape (http://www.inkscape.org/) -->
<svg id="svg4691" xmlns:rdf="http://www.w3.org/1999/02/22-rdf-syntax-ns#" xmlns="http://www.w3.org/2000/svg" height="200" viewBox="0 0 200 200" width="200" version="1.1" xmlns:cc="http://creativecommons.org/ns#" xmlns:dc="http://purl.org/dc/elements/1.1/">
 <defs id="defs8">
  <filter id="filter4864" style="color-interpolation-filters:sRGB" height="1.12" width="1.12" y="-0.06" x="-0.06">
   <feGaussianBlur id="feGaussianBlur4866" stdDeviation="2.7251583"/>
  </filter>
  <filter id="filter4868" style="color-interpolation-filters:sRGB" height="1.1769" width="1.1626" y="-.088436" x="-.081298">
   <feGaussianBlur id="feGaussianBlur4870" stdDeviation="2.7251583"/>
  </filter>
 </defs>
 <metadata id="metadata4696">
  <rdf:RDF>
   <cc:Work rdf:about="">
    <dc:format>image/svg+xml</dc:format>
    <dc:type rdf:resource="http://purl.org/dc/dcmitype/StillImage"/>
    <dc:title/>
   </cc:Work>
  </rdf:RDF>
 </metadata>
 <g id="layer3" transform="translate(0,68)">
  <path id="path4337" fill="#2196f3" stroke-opacity=".97647" fill-opacity=".99216" transform="matrix(8.689 0 0 3.9338 -1200.9 789.09)" stroke="#2196f3" stroke-width="3.319" d="m149.69-174.98 1.8788 3.2542 1.8788 3.2542h-3.7577-3.7577l1.8788-3.2542z"/>
 </g>
 <g id="layer14">
  <g id="layer1-2" transform="translate(35.591 -899.22)" stroke="#fff" fill="#fff">
   <ellipse id="path5239-9" rx="54.503" ry="54.503" stroke="#fff" cy="988.58" cx="64.748" stroke-width="12.994" fill="#fff"/>
  </g>
 </g>
 <g id="layer13" stroke="#2196f3">
  <g id="layer1-3" transform="matrix(1.05 0 0 1.05 32.896 -949.07)" filter="url(#filter4864)">
   <ellipse id="path5239-0" rx="54.503" ry="54.503" stroke="#2196f3" cy="988.58" cx="64.748" stroke-width="12.994" fill="none"/>
  </g>
  <g id="layer2-2" transform="matrix(1.05 0 0 1.05 32.896 -949.07)" filter="url(#filter4868)">
   <path id="path5244-0" d="m345.71 229.51 77.06 212.65 77.07 212.65-222.7-39.59-222.69-39.59 145.63-173.06z" transform="matrix(-.11703 -.14290 .13395 -.12211 34.836 1092.4)" stroke="#2196f3" stroke-width="72.554" fill="none"/>
  </g>
 </g>
 <g id="layer12">
  <g id="layer1" transform="translate(36.133 -899.1)">
   <ellipse id="path5239" rx="54.503" ry="54.503" stroke="#1c9210" cy="988.58" cx="64.748" stroke-width="12.994" fill="none"/>
  </g>
  <g id="layer2" transform="translate(36.133 -899.1)">
   <path id="path5244" d="m345.71 229.51 77.06 212.65 77.07 212.65-222.7-39.59-222.69-39.59 145.63-173.06z" transform="matrix(-.11703 -.14290 .13395 -.12211 34.836 1092.4)" stroke="#1044e1" stroke-width="72.554" fill="none"/>
  </g>
 </g>
</svg>
